<svg xmlns="http://www.w3.org/2000/svg" width="32" height="32" viewBox="0 0 32 32"><defs><style>.googlea{fill:#ea4335;}.googleb{fill:#4285f4;}.googlec{fill:#fbbc05;}.googled{fill:#34a853;}.googlee{fill:none;}</style></defs><path class="googlea" d="M16.853,6.333a8.7,8.7,0,0,1,6.14,2.4L27.56,4.167A15.391,15.391,0,0,0,16.853,0,15.992,15.992,0,0,0,2.56,8.813L7.88,12.94A9.552,9.552,0,0,1,16.853,6.333Z" transform="translate(-0.853)"/><path class="googleb" d="M39.32,23.033A19.461,19.461,0,0,0,39.067,20H24v6.013h8.627A7.437,7.437,0,0,1,29.44,30.8l5.153,4A15.681,15.681,0,0,0,39.32,23.033Z" transform="translate(-8 -6.667)"/><path class="googlec" d="M7.02,23.467a9.719,9.719,0,0,1-.507-3.06,9.533,9.533,0,0,1,.507-3.06L1.7,13.22a16.013,16.013,0,0,0,.007,14.373L7.02,23.467Z" transform="translate(0 -4.407)"/><path class="googled" d="M16.85,41.527a15.227,15.227,0,0,0,10.593-3.873l-5.153-4A9.688,9.688,0,0,1,7.87,28.58L2.55,32.707A16,16,0,0,0,16.85,41.527Z" transform="translate(-0.85 -9.527)"/><path class="googlee" d="M0,0H32V32H0Z"/></svg>